<?xml version="1.0" encoding="iso-8859-1"?>
<!-- Generator: Adobe Illustrator 19.0.0, SVG Export Plug-In . SVG Version: 6.00 Build 0)  -->
<svg version="1.1" id="Capa_1" xmlns="http://www.w3.org/2000/svg" xmlns:xlink="http://www.w3.org/1999/xlink" x="0px" y="0px"
	 viewBox="0 0 512.059 512.059" style="enable-background:new 0 0 512.059 512.059;" xml:space="preserve">
<path style="fill:#FFC107;" d="M416.057,0.03H40.591C24.166-0.129,9.323,9.795,3.193,25.033
	c-6.441,15.119-2.952,32.641,8.789,44.139l430.933,430.933c7.485,7.606,17.702,11.901,28.373,11.925
	c5.413-0.01,10.771-1.09,15.765-3.179c15.228-6.12,25.15-20.944,25.003-37.355V96.03C512.057,43.011,469.077,0.03,416.057,0.03z"/>
<g>
	<path style="fill:#FAFAFA;" d="M224.057,170.697c-5.891,0.001-10.668-4.773-10.669-10.664c0-0.717,0.072-1.433,0.216-2.136
		l14.421-72.128l-39.083,39.147c-4.237,4.092-10.99,3.975-15.083-0.262c-3.992-4.134-3.992-10.687,0-14.82l64-64
		c4.165-4.166,10.919-4.167,15.085-0.002c2.519,2.519,3.615,6.129,2.92,9.623l-14.421,72.128L280.548,88.5
		c4.092-4.237,10.845-4.355,15.083-0.262c4.237,4.092,4.355,10.845,0.262,15.083c-0.086,0.089-0.173,0.176-0.262,0.262l-64,64
		C229.621,169.587,226.896,170.708,224.057,170.697z"/>
	<path style="fill:#FAFAFA;" d="M288.057,234.697c-2.831,0.005-5.548-1.115-7.552-3.115l-32-32c-4.164-4.165-4.164-10.917,0-15.083
		l64-64c4.165-4.164,10.917-4.164,15.083,0l32,32c4.237,4.093,4.354,10.845,0.262,15.083c-4.093,4.237-10.845,4.354-15.083,0.262
		c-0.089-0.086-0.176-0.173-0.262-0.262l-24.448-24.469L271.14,192.03l24.448,24.448c4.171,4.16,4.179,10.914,0.019,15.085
		C293.606,233.569,290.89,234.696,288.057,234.697z"/>
	<path style="fill:#FAFAFA;" d="M309.391,192.03c-2.831,0.005-5.548-1.115-7.552-3.115l-21.333-21.333
		c-4.092-4.237-3.975-10.99,0.262-15.083c4.134-3.992,10.687-3.992,14.82,0l21.333,21.333c4.159,4.172,4.149,10.926-0.024,15.085
		C314.904,190.905,312.206,192.024,309.391,192.03z"/>
	<path style="fill:#FAFAFA;" d="M373.391,320.03c-5.891-0.004-10.663-4.784-10.659-10.675c0.001-1.143,0.185-2.278,0.547-3.363
		l14.592-43.755l-43.755,14.592c-4.096,1.323-8.587,0.092-11.435-3.136c-2.821-3.261-3.402-7.899-1.472-11.755l42.667-85.333
		c2.633-5.272,9.042-7.412,14.315-4.779c5.273,2.633,7.412,9.042,4.779,14.315l0,0l-31.147,62.293l39.573-13.184
		c3.837-1.254,8.053-0.257,10.923,2.581c2.861,2.857,3.861,7.087,2.581,10.923l-13.184,39.552l62.293-31.147
		c5.272-2.633,11.681-0.494,14.315,4.779c2.633,5.272,0.494,11.681-4.779,14.315l-85.333,42.667
		C376.714,319.664,375.062,320.044,373.391,320.03z"/>
</g>
<g>
</g>
<g>
</g>
<g>
</g>
<g>
</g>
<g>
</g>
<g>
</g>
<g>
</g>
<g>
</g>
<g>
</g>
<g>
</g>
<g>
</g>
<g>
</g>
<g>
</g>
<g>
</g>
<g>
</g>
</svg>
