<?xml version="1.0" standalone="no"?><!DOCTYPE svg PUBLIC "-//W3C//DTD SVG 1.1//EN" "http://www.w3.org/Graphics/SVG/1.1/DTD/svg11.dtd"><svg class="icon" height="512" viewBox="0 0 1024 1024" version="1.1" xmlns="http://www.w3.org/2000/svg"><path d="M504.50432 825.4464c-104.82688 0-209.64352 0.02048-314.4704-0.03072-23.28576-0.02048-24.87296-1.536-24.8832-24.22784-0.08192-77.03552-0.26624-154.08128 0.256-231.1168 0.07168-10.2912 2.51904-21.1968 6.4512-30.76096 30.976-75.20256 62.86336-150.03648 93.7472-225.28 5.7856-14.11072 13.4144-20.11136 29.16352-20.04992 137.2672 0.53248 274.5344 0.512 411.79136 0 15.36-0.0512 23.6544 5.12 29.87008 19.27168 32.94208 75.0592 67.04128 149.6064 99.91168 224.67584 4.83328 11.04896 7.33184 24.02304 7.43424 36.12672 0.6656 74.52672 0.3584 149.05344 0.32768 223.5904-0.01024 27.07456-0.67584 27.77088-27.00288 27.77088-104.20224 0.03072-208.40448 0.02048-312.59648 0.02048m0.63488-12.1856c101.05856 0.02048 202.11712-0.4608 303.18592 0.43008 19.2512 0.16384 24.30976-6.05184 24.04352-24.65792a7511.21408 7511.21408 0 0 1-0.0512-201.0112c0.2048-17.24416-5.35552-22.71232-22.41536-22.38464-49.2544 0.9216-98.58048 1.1776-147.82464-0.13312-18.176-0.49152-24.85248 5.50912-27.7504 23.17312-9.5744 58.1632-52.75648 99.9424-110.848 109.568-70.656 11.70432-139.78624-36.01408-151.79776-106.96704-3.46112-20.40832-10.98752-26.44992-31.1808-25.81504-47.99488 1.51552-96.06144 0.94208-144.09728 0.26624-14.72512-0.2048-19.49696 4.99712-19.37408 19.58912 0.53248 69.50912 0.64512 139.01824-0.06144 208.52736-0.17408 16.45568 6.73792 19.70176 21.23776 19.64032 102.30784-0.43008 204.61568-0.22528 306.93376-0.22528m233.69728-259.4816c-9.82016-28.93824-17.3568-53.248-26.69568-76.84096-1.7408-4.37248-10.68032-8.32512-16.30208-8.3456a59510.38464 59510.38464 0 0 0-387.2768-0.06144c-5.3248 0.02048-13.99808 3.11296-15.36 6.8608-8.87808 24.44288-16.1792 49.4592-25.2928 78.39744 31.67232 0 58.90048 0.70656 86.07744-0.256 17.53088-0.6144 25.43616 3.75808 26.28608 23.7568 2.6624 62.74048 58.0608 111.94368 123.16672 111.85152 63.7952-0.1024 118.91712-49.4592 121.76384-111.37024 0.90112-19.33312 7.68-24.99584 25.81504-24.2688 27.24864 1.09568 54.5792 0.28672 87.81824 0.28672M503.3984 455.94624c62.43328 0.02048 124.8768-0.4096 187.2896 0.3072 15.99488 0.2048 22.2208-4.27008 21.72928-21.17632-1.0752-36.93568-0.6656-73.9328-0.18432-110.90944 0.16384-12.6464-4.01408-17.8688-17.21344-17.83808-127.98976 0.3072-255.97952 0.27648-383.96928 0-12.55424-0.02048-17.98144 3.97312-17.79712 17.2544 0.55296 38.22592 0.6656 76.46208-0.0512 114.688-0.26624 14.57152 6.06208 17.96096 19.1488 17.8688 63.68256-0.41984 127.37536-0.2048 191.04768-0.2048M176.91648 553.472c27.58656 0 49.3056 1.06496 70.77888-0.768 5.30432-0.4608 12.00128-9.55392 14.32576-16.03584 13.568-37.80608 22.55872-76.32896 19.6096-117.2992-1.97632-27.37152-0.31744-55.00928-0.44032-82.5344-0.01024-5.90848-0.68608-11.8272-1.05472-17.74592l-4.80256-0.95232-98.4064 235.33568m655.42144 0.26624c-35.14368-78.51008-68.3008-152.54528-101.4272-226.57024-1.6896 0.37888-3.3792 0.73728-5.04832 1.09568-0.55296 5.16096-1.52576 10.30144-1.56672 15.4624-0.16384 24.40192 1.37216 48.896-0.4096 73.14432-3.03104 41.55392 6.42048 80.4864 19.53792 119.22432 4.18816 12.35968 9.86112 18.688 23.82848 17.92 19.70176-1.08544 39.49568-0.27648 65.08544-0.27648M458.17856 904.23296c-22.4256 41.8816-50.78016 77.57824-93.2864 99.88096-6.30784 3.30752-14.1312 5.90848-21.03296 5.43744-13.57824-0.9216-27.17696-3.50208-40.42752-6.77888-11.45856-2.84672-19.63008-1.77152-27.50464 8.6016-4.72064 6.22592-14.30528 13.08672-21.1968 12.5952-35.15392-2.56-68.7104-12.27776-100.49536-28.61056 36.62848-0.43008 68.17792-13.24032 93.3888-38.4 16.19968-16.15872 30.0032-35.072 42.84416-54.1184 7.2192-10.71104 11.89888-11.49952 23.74656-6.6048 17.50016 7.22944 36.67968 13.59872 55.31648 14.09024 28.88704 0.77824 57.91744-3.70688 88.64768-6.0928m-258.32448 99.64544c17.6128 3.31776 32.07168 7.65952 46.6432 8.12032 7.86432 0.256 18.19648-4.096 23.42912-9.96352 9.69728-10.89536 19.24096-14.336 32.88064-9.68704 64.83968 22.07744 106.06592-27.9552 131.50208-73.8304-9.15456 0.70656-16.9984 0.59392-24.55552 2.00704-32.8704 6.12352-64.19456 1.18784-95.1296-10.78272-4.73088-1.83296-15.07328 1.19808-17.7664 5.3248-23.0912 35.26656-51.16928 64.43008-90.60352 81.13152-1.45408 0.6144-2.29376 2.6624-6.4 7.68M85.12512 0c9.9328 12.87168 17.1008 25.8048 27.62752 34.816 10.9056 9.32864 13.29152 18.92352 12.99456 32.41984-1.1264 50.96448 7.71072 99.50208 39.39328 141.45536 0.72704 0.9728 0.09216 3.00032 0.09216 4.864C61.22496 180.0192 60.672 72.66304 85.12512 0m51.69152 184.0128c-17.13152-41.43104-21.34016-81.93024-22.1184-123.47392-0.2048-10.50624-13.4144-20.77696-21.48352-32.34816-22.8352 42.56768-5.15072 143.6672 43.60192 155.82208M871.58784 383.04768c15.69792-3.47136 31.00672-4.36224 43.90912-10.40384 13.1072-6.12352 23.82848-17.34656 36.59776-27.09504-11.24352 41.4208-35.03104 67.1744-67.61472 73.85088l-12.89216-36.352M283.7504 156.76416c2.65216 12.67712 3.86048 23.06048 7.1168 32.768 3.34848 10.00448 9.9328 19.00544 12.70784 29.11232 1.57696 5.7344-1.61792 12.8-3.11296 22.05696-22.95808-26.17344-29.82912-60.2112-16.71168-83.93728" /></svg>